#N canvas 186 328 650 459 10;
#X floatatom 148 143 5 0 0 0 - - -, f 5;
#X msg 222 127 clear;
#X obj 69 105 loadbang;
#X obj 33 48 inlet list-elements;
#X obj 222 48 inlet clear;
#X obj 443 42 inlet output;
#X obj 443 91 bng 15 250 50 0 empty empty empty 17 7 0 10 -262144 -1
-1;
#X msg 480 259 line 0;
#X msg 441 260 auto;
#X obj 441 333 outlet;
#X msg 69 130 1e+006;
#X obj 33 86 list;
#X obj 470 135 text size \$0-preset;
#X obj 443 111 t b b;
#X obj 441 204 spigot;
#X obj 471 168 > 0;
#X obj 32 179 text set \$0-preset;
#X obj 441 296 text sequence \$0-preset;
#X obj 221 154 text define \$0-preset;
#X obj 245 86 loadbang;
#X obj 441 230 t b b, f 6;
#X connect 0 0 16 2;
#X connect 1 0 18 0;
#X connect 2 0 10 0;
#X connect 3 0 11 0;
#X connect 4 0 1 0;
#X connect 5 0 6 0;
#X connect 6 0 13 0;
#X connect 7 0 17 0;
#X connect 8 0 17 0;
#X connect 10 0 16 1;
#X connect 11 0 16 0;
#X connect 12 0 15 0;
#X connect 13 0 14 0;
#X connect 13 1 12 0;
#X connect 14 0 20 0;
#X connect 15 0 14 1;
#X connect 17 0 9 0;
#X connect 19 0 1 0;
#X connect 20 0 8 0;
#X connect 20 1 7 0;
