#N canvas 1092 410 303 243 10;
#X obj 97 103 until;
#X obj 97 125 f;
#X obj 127 125 + 1;
#X obj 97 79 t f b;
#X msg 59 103 0;
#X obj 97 35 inlet;
#X obj 97 147 outlet;
#X obj 97 57 - 1;
#X connect 0 0 1 0;
#X connect 1 0 2 0;
#X connect 1 0 6 0;
#X connect 2 0 1 1;
#X connect 3 0 0 0;
#X connect 3 1 4 0;
#X connect 4 0 1 0;
#X connect 5 0 7 0;
#X connect 7 0 3 0;
